<?xml version="1.0" encoding="utf-8"?>
<!-- Generator: Adobe Illustrator 13.0.0, SVG Export Plug-In . SVG Version: 6.00 Build 14948)  -->
<!DOCTYPE svg PUBLIC "-//W3C//DTD SVG 1.1//EN" "http://www.w3.org/Graphics/SVG/1.1/DTD/svg11.dtd">
<svg version="1.1" id="Layer_1" xmlns="http://www.w3.org/2000/svg" xmlns:xlink="http://www.w3.org/1999/xlink" x="0px" y="0px"
	 width="538.68px" height="538.68px" viewBox="0 0 538.68 538.68" enable-background="new 0 0 538.68 538.68" xml:space="preserve">
<g>
	<defs>
		<rect id="SVGID_1_" width="538.68" height="538.68"/>
	</defs>
	<clipPath id="SVGID_2_">
		<use xlink:href="#SVGID_1_"  overflow="visible"/>
	</clipPath>
	<rect clip-path="url(#SVGID_2_)" fill-rule="evenodd" clip-rule="evenodd" fill="#FFFFFF" width="538.68" height="538.68"/>
</g>
<path fill-rule="evenodd" clip-rule="evenodd" d="M393,126.24c0-36.91,29.95-66.84,66.9-66.84c36.949,0,66.899,29.93,66.899,66.84
	s-29.95,66.84-66.899,66.84C422.95,193.08,393,163.15,393,126.24z"/>
<path fill="none" stroke="#2F528F" stroke-width="0.96" stroke-miterlimit="10" d="M393,126.24c0-36.91,29.95-66.84,66.9-66.84
	c36.949,0,66.899,29.93,66.899,66.84s-29.95,66.84-66.899,66.84C422.95,193.08,393,163.15,393,126.24z"/>
<path fill-rule="evenodd" clip-rule="evenodd" d="M11.88,126.24c0-36.91,29.925-66.84,66.84-66.84c36.91,0,66.84,29.93,66.84,66.84
	s-29.93,66.84-66.84,66.84C41.805,193.08,11.88,163.15,11.88,126.24z"/>
<path fill="none" stroke="#2F528F" stroke-width="0.96" stroke-miterlimit="10" d="M11.88,126.24c0-36.91,29.925-66.84,66.84-66.84
	c36.91,0,66.84,29.93,66.84,66.84s-29.93,66.84-66.84,66.84C41.805,193.08,11.88,163.15,11.88,126.24z"/>
<path fill-rule="evenodd" clip-rule="evenodd" d="M202.68,461.22c0-36.95,29.93-66.9,66.84-66.9c36.91,0,66.84,29.95,66.84,66.9
	c0,36.948-29.931,66.9-66.84,66.9C232.61,528.121,202.68,498.168,202.68,461.22z"/>
<path fill="none" stroke="#2F528F" stroke-width="0.96" stroke-miterlimit="10" d="M202.68,461.22c0-36.95,29.93-66.9,66.84-66.9
	c36.91,0,66.84,29.95,66.84,66.9c0,36.948-29.931,66.9-66.84,66.9C232.61,528.121,202.68,498.168,202.68,461.22z"/>
<polygon fill="none" stroke="#000000" stroke-width="5.04" stroke-miterlimit="10" points="79.2,352.8 269.52,17.88 459.84,352.8 
	"/>
<polygon fill-rule="evenodd" clip-rule="evenodd" fill="#FFFFFF" points="460.32,126.24 269.94,461.161 79.56,126.24 "/>
</svg>
